<?xml version="1.0" encoding="UTF-8"?>
<svg version="1.1" xmlns="http://www.w3.org/2000/svg" width="1024" height="1024">
    <path
        d="M0 0 C337.92 0 675.84 0 1024 0 C1024 337.92 1024 675.84 1024 1024 C686.08 1024 348.16 1024 0 1024 C0 686.08 0 348.16 0 0 Z "
        fill="transparent" transform="translate(0,0)" />
    <path
        d="M0 0 C71.94 0 143.88 0 218 0 C218 53.36046865 217.48792702 107.46945761 207.83203125 160.20703125 C207.26244866 163.32759683 206.82416504 166.41776243 206.51171875 169.57421875 C206.1255306 173.31884993 205.42693614 176.89853966 204.56689453 180.56103516 C203.93587239 183.27589787 203.37088448 186.00055844 202.80859375 188.73046875 C193.35271071 233.69494369 178.90848625 280.17980476 152 318 C151.30390625 318.98226563 150.6078125 319.96453125 149.890625 320.9765625 C143.0215599 330.40325822 135.24703356 338.76666583 127 347 C126.50757813 347.53882813 126.01515625 348.07765625 125.5078125 348.6328125 C99.16973408 377.05412876 56.73745536 391.35352963 19 394 C-20.57743921 395.43350351 -61.62817869 389.25207526 -92.125 361.75 C-115.69569304 339.7341724 -128.534972 309.38309684 -130.13867188 277.21875 C-130.97481148 251.28202722 -127.18946862 229.27802056 -109.5 209.15625 C-103.07218037 202.35471993 -96.22239621 197.42977803 -88 193 C-87.10667969 192.51789063 -86.21335938 192.03578125 -85.29296875 191.5390625 C-62.47966512 180.25212067 -34.41910661 180.0448596 -10.54443359 187.79736328 C7.67939881 194.08303805 24.22538032 203.66568782 39 216 C39.83990479 216.68980957 39.83990479 216.68980957 40.69677734 217.39355469 C49.65206591 224.76438846 57.92327666 232.68177995 66 241 C58.86236322 225.13858493 50.8172126 210.81375967 40.3125 196.9375 C39.52891113 195.90181885 39.52891113 195.90181885 38.72949219 194.84521484 C35.58147957 190.78208227 32.23872052 187.0978505 28.53515625 183.53295898 C26.5020625 181.5027752 24.78487337 179.24761831 23 177 C22.34 176.67 21.68 176.34 21 176 C21 175.34 21 174.68 21 174 C20.16275391 173.64421875 20.16275391 173.64421875 19.30859375 173.28125 C16.46391754 171.70247877 14.42131753 169.74176343 12.0625 167.5 C-6.65132736 150.13886547 -29.13470281 136.19932924 -52 125 C-50.24894615 121.32357039 -48.05339245 118.4336602 -45.5 115.25 C-31.45433733 97.30904112 -21.95516813 77.23915702 -14 56 C-13.71882324 55.25524414 -13.43764648 54.51048828 -13.14794922 53.74316406 C-7.21835714 37.79954791 -4.07145363 21.18142749 -1.45605469 4.41162109 C-1 2 -1 2 0 0 Z "
        fill="#ffffff" transform="translate(275,383)" />
    <path
        d="M0 0 C4.21344517 0.5394024 6.95091917 3.0896188 10.125 5.6875 C11.37577465 6.69076208 12.62710456 7.69333219 13.87890625 8.6953125 C14.54422363 9.2305957 15.20954102 9.76587891 15.89501953 10.31738281 C19.58841611 13.26970121 23.32693168 16.16386013 27.0625 19.0625 C27.83223145 19.6608667 28.60196289 20.2592334 29.39501953 20.87573242 C33.75393664 24.26286033 38.12188056 27.63773677 42.5 31 C53.1558194 39.1833468 63.7564669 47.43837456 74.3125 55.75 C76.54044363 57.50156245 78.76973495 59.25139452 81 61 C81.59248535 61.46486816 82.1849707 61.92973633 82.79541016 62.40869141 C84.56888287 63.79726862 86.34631132 65.18061314 88.125 66.5625 C89.15882813 67.36816406 90.19265625 68.17382812 91.2578125 69.00390625 C93.47663222 70.61903001 95.50235776 71.89458418 98 73 C98.85658203 72.30777344 98.85658203 72.30777344 99.73046875 71.6015625 C104.48405331 67.77753422 109.27424929 64.01263569 114.125 60.3125 C119.16041254 56.46689275 124.09521038 52.51061415 129 48.5 C134.85681558 43.71242941 140.78479895 39.04362641 146.796875 34.453125 C150.17759076 31.87080706 153.52992838 29.25327056 156.875 26.625 C157.4525 26.17125 158.03 25.7175 158.625 25.25 C162.33898766 22.32482388 166.03087966 19.37320373 169.71508789 16.41064453 C176.70474057 10.79068859 183.78125997 5.32331667 191 0 C194.80802795 1.45678619 195.92779638 3.14791194 197.6640625 6.77734375 C198.14053223 7.75485596 198.61700195 8.73236816 199.10791016 9.73950195 C199.6085498 10.79484131 200.10918945 11.85018066 200.625 12.9375 C201.70671441 15.15964297 202.79006385 17.38099073 203.875 19.6015625 C204.40867187 20.70016602 204.94234375 21.79876953 205.4921875 22.93066406 C207.45893182 26.9342116 209.52422186 30.87809997 211.625 34.8125 C216.26430314 43.55687146 220.828247 52.33991004 225.37030029 61.13510132 C226.20510622 62.75015455 227.04140469 64.36443719 227.87921143 65.97793579 C229.06142515 68.25541935 230.23837865 70.53554652 231.4140625 72.81640625 C231.95703979 73.85882477 231.95703979 73.85882477 232.51098633 74.92230225 C235 79.77166645 235 79.77166645 235 82 C236.0837793 81.50822266 237.16755859 81.01644531 238.28417969 80.50976562 C261.83223685 69.82757162 285.41131849 59.22075379 309.05371094 48.74902344 C313.6771625 46.70070835 318.29696599 44.644222 322.91674805 42.58764648 C338.02919719 35.86122849 353.16120408 29.17909359 368.29321289 22.49682617 C369.19740463 22.09751389 370.10159637 21.6982016 371.03318787 21.28678894 C372.72663097 20.53896788 374.420119 19.79124855 376.11366272 19.0436554 C376.88778 18.70182724 377.66189728 18.35999908 378.45947266 18.0078125 C379.20658508 17.67942383 379.95369751 17.35103516 380.72344971 17.01269531 C382.31293867 16.30563076 383.89648652 15.58512492 385.47528076 14.85449219 C386.27411682 14.48743164 387.07295288 14.12037109 387.89599609 13.7421875 C388.61226166 13.40815918 389.32852722 13.07413086 390.0664978 12.72998047 C392 12 392 12 395 12 C394.44190805 15.95629977 393.60999924 19.37242038 392.05859375 23.05078125 C391.64802734 24.03820312 391.23746094 25.025625 390.81445312 26.04296875 C390.36005859 27.12191406 389.90566406 28.20085937 389.4375 29.3125 C388.43327831 31.73452593 387.43129814 34.15732688 386.43359375 36.58203125 C386.16412933 37.23636139 385.89466492 37.89069153 385.61703491 38.56484985 C381.95563462 47.49483295 378.49080954 56.50236278 375 65.5 C370.52000535 77.03493216 366.01385797 88.55310149 361.3125 100 C356.91955532 110.69682029 352.6494742 121.43796363 348.42407227 132.20166016 C347.87128522 133.60971179 347.31846863 135.01775183 346.765625 136.42578125 C346.48025375 137.15265137 346.19488251 137.87952148 345.90086365 138.62841797 C343.27426976 145.31311997 340.63043825 151.99095309 337.984375 158.66796875 C337.55217651 159.75871201 337.11997803 160.84945526 336.67468262 161.97325134 C334.9346082 166.3641938 333.19429277 170.75503985 331.45263672 175.14535522 C330.23336011 178.21902654 329.01504509 181.29307752 327.796875 184.3671875 C327.24311188 185.76175423 327.24311188 185.76175423 326.67816162 187.18449402 C326.16989838 188.46771294 326.16989838 188.46771294 325.65136719 189.77685547 C325.20721466 190.89663284 325.20721466 190.89663284 324.75408936 192.03903198 C324.1245409 193.67613823 323.55465738 195.33602785 323 197 C174.17 197 25.34 197 -128 197 C-136.47893857 176.65054743 -144.92536501 156.31504214 -153.17819214 135.87715149 C-157.76110431 124.53653007 -162.44171123 113.23694737 -167.125 101.9375 C-175.21882502 82.40701137 -183.16609554 62.81923833 -191.05908203 43.20678711 C-191.69515884 41.62676155 -191.69515884 41.62676155 -192.34408569 40.01481628 C-193.15771259 37.99352538 -193.97090029 35.97205761 -194.78359985 33.95039368 C-197.20683886 27.93227848 -199.67648173 21.93892684 -202.24462891 15.98095703 C-203 14 -203 14 -203 12 C-198.87305946 12.64474471 -195.46964326 13.9997618 -191.6796875 15.73828125 C-190.7689875 16.15305977 -190.7689875 16.15305977 -189.83988953 16.57621765 C-188.53252686 17.17230995 -187.22623791 17.77076175 -185.92092896 18.37133789 C-183.13036322 19.65504558 -180.33440594 20.92680809 -177.53877258 22.19943237 C-176.10432823 22.85258559 -174.67015626 23.50633735 -173.23625183 24.16067505 C-166.69510116 27.14494801 -160.13393057 30.08299847 -153.5625 33 C-152.47743164 33.48194824 -151.39236328 33.96389648 -150.27441406 34.46044922 C-140.89420046 38.61861757 -131.49057151 42.72264441 -122.08679199 46.82711792 C-108.91392872 52.57894719 -95.79367143 58.44257691 -82.68652344 64.34277344 C-78.75441472 66.11162719 -74.81877229 67.87254829 -70.8828125 69.6328125 C-69.53995206 70.23363 -68.19709717 70.83445993 -66.85424805 71.43530273 C-64.91445317 72.30322319 -62.97456782 73.17093738 -61.03433228 74.03787231 C-59.26081104 74.83043631 -57.48781579 75.62417697 -55.71484375 76.41796875 C-54.70542725 76.86938232 -53.69601074 77.3207959 -52.65600586 77.78588867 C-50 79 -50 79 -47.89282227 80.16137695 C-45.73552513 81.27005124 -45.73552513 81.27005124 -42 81 C-34.69852552 67.063549 -27.46535586 53.09322784 -20.27023315 39.10168457 C-15.54340767 29.91195535 -10.79461016 20.73531065 -5.95458984 11.60449219 C-3.91769157 7.76083266 -1.92862687 3.8997078 0 0 Z "
        fill="#ffffff" transform="translate(396,158)" />
    <path
        d="M0 0 C13.2 0 26.4 0 40 0 C42.8125 12.3125 42.8125 12.3125 43.67895508 16.12231445 C45.28877812 23.13226719 47.05138245 30.07692116 49 37 C49.30421875 38.11890625 49.6084375 39.2378125 49.921875 40.390625 C61.3388055 79.8113473 90.24582869 118.24582869 119 147 C118.40032525 155.40972454 110.74172024 162.56541893 105 168.125 C87.45326122 183.31614919 64.49875262 190.32673427 42 194 C41.98598145 195.19375244 41.98598145 195.19375244 41.97167969 196.41162109 C41.91753072 200.06667651 41.83396924 203.72051284 41.75 207.375 C41.73582031 208.62667969 41.72164062 209.87835937 41.70703125 211.16796875 C41.5091397 218.72742587 40.85638032 225.35772304 37 232 C36.44022461 232.50063965 35.88044922 233.0012793 35.30371094 233.51708984 C34.87348633 234.0064502 34.44326172 234.49581055 34 235 C34.26148127 238.04695684 35.54978825 240.09608779 37.30078125 242.546875 C37.77717041 243.21871826 38.25355957 243.89056152 38.74438477 244.58276367 C39.26186279 245.29795166 39.77934082 246.01313965 40.3125 246.75 C40.84866943 247.49934814 41.38483887 248.24869629 41.93725586 249.02075195 C50.54701845 261.00201159 59.48366126 272.71943534 68.64550781 284.28222656 C70.00955924 286.01212307 71.36179853 287.75064237 72.7109375 289.4921875 C80.17758753 299.11283345 88.03712587 308.35267041 96.07421875 317.5 C101.15170387 323.30665536 106.04045914 329.18422107 110.5625 335.4375 C111.17085693 336.26991211 111.17085693 336.26991211 111.79150391 337.11914062 C117.32888451 344.95376999 119.02930762 351.57431785 118 361 C116.18041018 369.13161326 112.74551962 376.18919312 108 383 C107.54496094 383.66386719 107.08992188 384.32773437 106.62109375 385.01171875 C97.27258257 397.04518092 81.7644557 404.31795577 68 410 C67.35047363 410.27150879 66.70094727 410.54301758 66.03173828 410.82275391 C56.56866395 414.69064518 46.83503075 417.12570304 36.875 419.375 C35.71242676 419.63812988 34.54985352 419.90125977 33.35205078 420.17236328 C27.80253008 421.37162753 22.681106 422.34580645 17 422 C17.13277344 422.62261719 17.26554688 423.24523437 17.40234375 423.88671875 C19.37016545 434.18546442 19.63850574 444.54311723 20 455 C11.0342027 452.67369557 2.66017269 449.04732759 -5.8125 445.375 C-6.56588654 445.05041809 -7.31927307 444.72583618 -8.0954895 444.39141846 C-24.7671799 437.20577714 -41.25861294 429.63649727 -57.72070312 421.98535156 C-61.68850853 420.14221753 -65.66355894 418.31523132 -69.640625 416.4921875 C-84.32872575 409.74441254 -98.83517893 402.68941046 -113.25585938 395.38818359 C-116.22179408 393.88780061 -119.19301323 392.39841661 -122.16723633 390.91455078 C-123.38647322 390.30615043 -124.60506464 389.69645478 -125.82299805 389.08544922 C-129.85290173 387.06451675 -133.89437193 385.06845746 -137.94140625 383.08203125 C-151.66785191 376.31905023 -165.10298827 369.20246233 -178.34521484 361.53466797 C-180.88677455 360.06545293 -183.43602146 358.61068464 -185.98828125 357.16015625 C-194.22451607 352.46245195 -202.34787937 347.60994975 -210.375 342.5625 C-211.16616211 342.06613037 -211.95732422 341.56976074 -212.77246094 341.05834961 C-216.7011645 338.56349502 -220.43321211 336.00548063 -224 333 C-222.68083963 330.20262333 -221.20250364 327.77674413 -219.34765625 325.3046875 C-218.82405518 324.59836182 -218.3004541 323.89203613 -217.76098633 323.16430664 C-217.20048584 322.40883545 -216.63998535 321.65336426 -216.0625 320.875 C-190.90530899 286.43007435 -173.48559738 246.25740075 -163 205 C-158.64305296 206.46566417 -155.57873289 208.7039871 -152 211.5625 C-146.65610674 215.77010481 -141.17847588 219.69442275 -135.5625 223.53515625 C-131.43178005 226.3744408 -127.37214476 229.31036239 -123.3125 232.25 C-122.55976807 232.79495117 -121.80703613 233.33990234 -121.03149414 233.90136719 C-118.6870257 235.60003461 -116.34343982 237.29991387 -114 239 C-110.75113259 241.35573452 -107.50088703 243.70955362 -104.25 246.0625 C-103.51177002 246.59842773 -102.77354004 247.13435547 -102.01293945 247.68652344 C-98.06202725 250.54619669 -94.0788197 253.32567954 -90 256 C-89.82887695 254.18894775 -89.82887695 254.18894775 -89.65429688 252.34130859 C-88.94823909 246.01253344 -87.72864035 239.79016888 -86.53125 233.5390625 C-86.29088013 232.27154144 -86.05051025 231.00402039 -85.80285645 229.6980896 C-85.29730256 227.03350329 -84.78944575 224.36937019 -84.27978516 221.70556641 C-83.62704365 218.29338297 -82.97922403 214.88028765 -82.33298492 211.46686745 C-81.71378903 208.19884296 -81.09119284 204.93147017 -80.46875 201.6640625 C-80.23643677 200.43910065 -80.00412354 199.21413879 -79.76477051 197.95205688 C-79.43938293 196.25416519 -79.43938293 196.25416519 -79.10742188 194.52197266 C-78.91724487 193.52541656 -78.72706787 192.52886047 -78.53112793 191.50210571 C-78 189 -78 189 -77 186 C-68.21651413 184.04366942 -59.33870064 182.89162841 -50.42578125 181.72265625 C-48.81361736 181.50877951 -47.20149143 181.29461652 -45.58940125 181.08018494 C-41.35559806 180.51783326 -37.12127958 179.95945929 -32.88684082 179.4019165 C-28.65534886 178.84401127 -24.42438603 178.28212406 -20.19335938 177.72070312 C-16.89586363 177.28362529 -13.59832836 176.84684635 -10.30078125 176.41015625 C-9.49629547 176.30357571 -8.69180969 176.19699516 -7.86294556 176.08718491 C-0.14205071 175.06490746 7.57906962 174.04746528 15.30664062 173.07666016 C16.37380814 172.94158554 17.44097565 172.80651093 18.54048157 172.66734314 C20.4380589 172.42824935 22.33612319 172.19296885 24.23478699 171.96266174 C30.56331402 171.16356896 36.24681419 169.84447783 42 167 C43.00417969 166.51789063 44.00835938 166.03578125 45.04296875 165.5390625 C56.70048987 159.60584386 67.45913256 151.94826698 77 143 C76.41177432 139.95041622 75.55929963 138.13445094 73.55078125 135.77734375 C73.03966797 135.16648926 72.52855469 134.55563477 72.00195312 133.92626953 C71.44443359 133.26997559 70.88691406 132.61368164 70.3125 131.9375 C63.43750023 123.6611168 57.04115965 115.0893603 50.72753906 106.38037109 C49.04140247 104.05704834 47.34595135 101.74079941 45.6484375 99.42578125 C25.58583856 71.98595717 0 35.6845739 0 0 Z "
        fill="#ffffff" transform="translate(672,383)" />
    <path
        d="M0 0 C1.15338867 -0.02215576 2.30677734 -0.04431152 3.49511719 -0.06713867 C11.48764052 -0.04683836 20.09369501 0.68176065 26.28417969 6.27563477 C31.18394587 11.77922419 31.60428452 15.77264443 31.5234375 23.10546875 C30.98865218 29.62220987 28.48715568 33.56344489 23.6875 37.875 C19.12621105 41.60326958 14.67881049 42.02678828 8.91796875 41.96484375 C2.03930872 40.97589902 -3.94184671 37.64496697 -10.15869141 34.66552734 C-32.42980595 24.11119286 -55.42824809 17.34834832 -79.75 13.4375 C-76.90123331 11.89475699 -74.26616563 10.96478901 -71.109375 10.25390625 C-69.7637146 9.94815674 -69.7637146 9.94815674 -68.39086914 9.63623047 C-67.43688232 9.42627441 -66.48289551 9.21631836 -65.5 9 C-64.5092749 8.77973145 -63.5185498 8.55946289 -62.49780273 8.33251953 C-54.27707269 6.52195013 -46.05992373 4.79304585 -37.75 3.4375 C-36.9357959 3.30069824 -36.1215918 3.16389648 -35.28271484 3.02294922 C-23.5324013 1.09961869 -11.9095969 0.12212143 0 0 Z "
        fill="#ffffff" transform="translate(630.75,436.5625)" />
</svg>